<svg width="590" height="94" viewBox="0 0 590 94" fill="none" xmlns="http://www.w3.org/2000/svg">
<path d="M14 0H47.091L66.0001 22.8485H32.1213L14 0Z" fill="#15B2E8"/>
<path d="M118 0H84.909L65.9999 22.8485H99.8787L118 0Z" fill="#15B2E8"/>
<path d="M98.3218 66.7083L33.6785 66.7082L66.0001 27.2916L98.3218 66.7083Z" fill="#72CFEF"/>
<path d="M14 94.0002H47.091L66.0001 71.1517H32.1213L14 94.0002Z" fill="#39C5EC"/>
<path d="M118 94.0002H84.909L65.9999 71.1517H99.8787L118 94.0002Z" fill="#39C5EC"/>
<path d="M173.297 21.6348H182.719L208.91 74.6855H199.559L194.672 64.7363H161.273L156.422 74.6855H147L173.297 21.6348ZM165.07 57.1777H190.84L177.973 30.916L165.07 57.1777Z" fill="white"/>
<path d="M257.074 74.6855L239.391 54.4707L221.602 74.6855H210.352L233.766 48.1074L210.352 21.6348H221.602L239.391 41.7793L257.074 21.6348H268.324L244.98 48.1074L268.324 74.6855H257.074Z" fill="white"/>
<path d="M340.008 74.6855H308.051C303.363 74.6855 299.59 73.2676 296.73 70.4316C293.871 67.5723 292.441 63.8105 292.441 59.1465V37.1738C292.441 32.5098 293.871 28.7598 296.73 25.9238C299.59 23.0645 303.363 21.6348 308.051 21.6348H340.008V29.123H309C306.562 29.123 304.594 29.873 303.094 31.373C301.594 32.8496 300.844 34.8066 300.844 37.2441V59.0059C300.844 61.4434 301.594 63.4121 303.094 64.9121C304.594 66.3887 306.562 67.127 309 67.127H340.008V74.6855Z" fill="white"/>
<path d="M357.551 74.6855C353.262 74.6855 349.98 73.5371 347.707 71.2402C345.434 68.9434 344.297 65.6504 344.297 61.3613V50.0762C344.297 45.7871 345.434 42.4941 347.707 40.1973C349.98 37.9004 353.262 36.752 357.551 36.752H376.289C380.578 36.752 383.859 37.9004 386.133 40.1973C388.43 42.4941 389.578 45.7871 389.578 50.0762V61.3613C389.578 65.6504 388.43 68.9434 386.133 71.2402C383.859 73.5371 380.578 74.6855 376.289 74.6855H357.551ZM359.414 67.5488H374.461C376.898 67.5488 378.691 66.9746 379.84 65.8262C381.012 64.6543 381.598 62.8496 381.598 60.4121V50.9902C381.598 48.5527 381.012 46.7598 379.84 45.6113C378.691 44.4395 376.898 43.8535 374.461 43.8535H359.414C356.977 43.8535 355.172 44.4395 354 45.6113C352.828 46.7598 352.242 48.5527 352.242 50.9902V60.4121C352.242 62.8496 352.828 64.6543 354 65.8262C355.172 66.9746 356.977 67.5488 359.414 67.5488Z" fill="white"/>
<path d="M442.629 74.6855H434.648V50.9902C434.648 48.5527 434.062 46.7598 432.891 45.6113C431.742 44.4395 429.949 43.8535 427.512 43.8535H405.328V74.6855H397.348V36.752H405.328V42.0605C405.562 40.6309 406.23 39.3887 407.332 38.334C408.457 37.2793 409.957 36.752 411.832 36.752H429.305C433.594 36.752 436.887 37.9004 439.184 40.1973C441.48 42.4941 442.629 45.7871 442.629 50.0762V74.6855Z" fill="white"/>
<path d="M484.852 74.6855H463.09C458.941 74.6855 455.789 73.6191 453.633 71.4863C451.5 69.3301 450.434 66.1777 450.434 62.0293V23.1465H458.414V36.752H483.621V43.8535H458.414V61.6426C458.414 63.8926 458.848 65.4395 459.715 66.2832C460.605 67.127 462.188 67.5488 464.461 67.5488H484.852V74.6855Z" fill="white"/>
<path d="M499.125 43.8535V74.6855H491.145V36.752H499.125V42.0605C499.359 40.6309 500.027 39.3887 501.129 38.334C502.254 37.2793 503.754 36.752 505.629 36.752H525.352V43.8535H499.125Z" fill="white"/>
<path d="M542.121 74.6855C537.832 74.6855 534.551 73.5371 532.277 71.2402C530.004 68.9434 528.867 65.6504 528.867 61.3613V50.0762C528.867 45.7871 530.004 42.4941 532.277 40.1973C534.551 37.9004 537.832 36.752 542.121 36.752H560.859C565.148 36.752 568.43 37.9004 570.703 40.1973C573 42.4941 574.148 45.7871 574.148 50.0762V61.3613C574.148 65.6504 573 68.9434 570.703 71.2402C568.43 73.5371 565.148 74.6855 560.859 74.6855H542.121ZM543.984 67.5488H559.031C561.469 67.5488 563.262 66.9746 564.41 65.8262C565.582 64.6543 566.168 62.8496 566.168 60.4121V50.9902C566.168 48.5527 565.582 46.7598 564.41 45.6113C563.262 44.4395 561.469 43.8535 559.031 43.8535H543.984C541.547 43.8535 539.742 44.4395 538.57 45.6113C537.398 46.7598 536.812 48.5527 536.812 50.9902V60.4121C536.812 62.8496 537.398 64.6543 538.57 65.8262C539.742 66.9746 541.547 67.5488 543.984 67.5488Z" fill="white"/>
<path d="M589.898 74.6855H581.918V19.3145H589.898V74.6855Z" fill="white"/>
</svg>
